<mxfile host="Electron" agent="Mozilla/5.0 (X11; Linux x86_64) AppleWebKit/537.36 (KHTML, like Gecko) draw.io/28.2.5 Chrome/138.0.7204.251 Electron/37.6.1 Safari/537.36" version="28.2.5" pages="2">
  <diagram name="con_indice" id="QjBC-TkBW_J3Iv6IjbhV">
    <mxGraphModel dx="1612" dy="992" grid="1" gridSize="10" guides="1" tooltips="1" connect="1" arrows="1" fold="1" page="1" pageScale="1" pageWidth="850" pageHeight="1100" math="0" shadow="0">
      <root>
        <mxCell id="0" />
        <mxCell id="1" parent="0" />
        <mxCell id="VurrTGTZS2ax7EfnVJeC-1" value="&lt;font style=&quot;font-size: 22px;&quot;&gt;index&lt;/font&gt;" style="text;html=1;align=center;verticalAlign=middle;whiteSpace=wrap;rounded=0;fontSize=16;fontFamily=Cascadia Code;fontColor=#4D4D4D;container=0;" vertex="1" parent="1">
          <mxGeometry x="772" y="433" width="110" height="50" as="geometry" />
        </mxCell>
        <mxCell id="VurrTGTZS2ax7EfnVJeC-2" value="&lt;span style=&quot;color: rgb(77, 77, 77); font-family: &amp;quot;Cascadia Code&amp;quot;;&quot;&gt;&lt;font style=&quot;font-size: 18px;&quot;&gt;&quot;almendras&quot;&lt;/font&gt;&lt;/span&gt;" style="rounded=0;whiteSpace=wrap;html=1;strokeWidth=1;fillColor=#DFEAF2;" vertex="1" parent="1">
          <mxGeometry x="1039" y="480" width="120" height="70" as="geometry" />
        </mxCell>
        <mxCell id="VurrTGTZS2ax7EfnVJeC-3" value="&lt;font face=&quot;Cascadia Code&quot; style=&quot;color: rgb(77, 77, 77);&quot;&gt;1&lt;/font&gt;" style="rounded=0;whiteSpace=wrap;html=1;strokeWidth=1;fillColor=#DFEAF2;fontSize=22;" vertex="1" parent="1">
          <mxGeometry x="1039" y="440" width="120" height="40" as="geometry" />
        </mxCell>
        <mxCell id="VurrTGTZS2ax7EfnVJeC-4" value="&lt;span style=&quot;color: rgb(77, 77, 77); font-family: &amp;quot;Cascadia Code&amp;quot;;&quot;&gt;&lt;font style=&quot;font-size: 18px;&quot;&gt;&quot;pistachos&quot;&lt;/font&gt;&lt;/span&gt;" style="rounded=0;whiteSpace=wrap;html=1;strokeWidth=1;fillColor=#DFEAF2;" vertex="1" parent="1">
          <mxGeometry x="1159" y="480" width="120" height="70" as="geometry" />
        </mxCell>
        <mxCell id="VurrTGTZS2ax7EfnVJeC-5" value="&lt;font face=&quot;Cascadia Code&quot; style=&quot;color: rgb(77, 77, 77);&quot;&gt;2&lt;/font&gt;" style="rounded=0;whiteSpace=wrap;html=1;strokeWidth=1;fillColor=#DFEAF2;fontSize=22;" vertex="1" parent="1">
          <mxGeometry x="1159" y="440" width="120" height="40" as="geometry" />
        </mxCell>
        <mxCell id="VurrTGTZS2ax7EfnVJeC-6" value="&lt;span style=&quot;color: rgb(77, 77, 77); font-family: &amp;quot;Cascadia Code&amp;quot;;&quot;&gt;&lt;font style=&quot;font-size: 18px;&quot;&gt;&quot;maníes&quot;&lt;/font&gt;&lt;/span&gt;" style="rounded=0;whiteSpace=wrap;html=1;strokeWidth=1;fillColor=#DFEAF2;" vertex="1" parent="1">
          <mxGeometry x="1279" y="480" width="120" height="70" as="geometry" />
        </mxCell>
        <mxCell id="VurrTGTZS2ax7EfnVJeC-7" value="&lt;font face=&quot;Cascadia Code&quot; style=&quot;color: rgb(77, 77, 77);&quot;&gt;3&lt;/font&gt;" style="rounded=0;whiteSpace=wrap;html=1;strokeWidth=1;fillColor=#DFEAF2;fontSize=22;" vertex="1" parent="1">
          <mxGeometry x="1279" y="440" width="120" height="40" as="geometry" />
        </mxCell>
        <mxCell id="VurrTGTZS2ax7EfnVJeC-8" value="&lt;span style=&quot;color: rgb(77, 77, 77); font-family: &amp;quot;Cascadia Code&amp;quot;;&quot;&gt;&lt;font style=&quot;font-size: 18px;&quot;&gt;&quot;castañas&quot;&lt;/font&gt;&lt;/span&gt;" style="rounded=0;whiteSpace=wrap;html=1;strokeWidth=1;fillColor=#DFEAF2;" vertex="1" parent="1">
          <mxGeometry x="1399" y="480" width="120" height="70" as="geometry" />
        </mxCell>
        <mxCell id="VurrTGTZS2ax7EfnVJeC-9" value="&lt;font face=&quot;Cascadia Code&quot; style=&quot;color: rgb(77, 77, 77);&quot;&gt;4&lt;/font&gt;" style="rounded=0;whiteSpace=wrap;html=1;strokeWidth=1;fillColor=#DFEAF2;fontSize=22;" vertex="1" parent="1">
          <mxGeometry x="1399" y="440" width="120" height="40" as="geometry" />
        </mxCell>
        <mxCell id="VurrTGTZS2ax7EfnVJeC-10" value="&lt;span style=&quot;color: rgb(77, 77, 77); font-family: &amp;quot;Cascadia Code&amp;quot;;&quot;&gt;&lt;font style=&quot;font-size: 18px;&quot;&gt;&quot;nueces&quot;&lt;/font&gt;&lt;/span&gt;" style="rounded=0;whiteSpace=wrap;html=1;strokeWidth=1;fillColor=#DFEAF2;" vertex="1" parent="1">
          <mxGeometry x="919" y="480" width="120" height="70" as="geometry" />
        </mxCell>
        <mxCell id="VurrTGTZS2ax7EfnVJeC-11" value="&lt;font style=&quot;color: rgb(77, 77, 77);&quot; face=&quot;Cascadia Code&quot;&gt;0&lt;/font&gt;" style="rounded=0;whiteSpace=wrap;html=1;strokeWidth=1;fillColor=#DFEAF2;fontSize=22;" vertex="1" parent="1">
          <mxGeometry x="919" y="440" width="120" height="40" as="geometry" />
        </mxCell>
        <mxCell id="VurrTGTZS2ax7EfnVJeC-18" value="" style="endArrow=classic;html=1;rounded=0;strokeWidth=2;fontColor=#4D4D4D;strokeColor=#4D4D4D;" edge="1" parent="1">
          <mxGeometry width="50" height="50" relative="1" as="geometry">
            <mxPoint x="869" y="459.79999999999995" as="sourcePoint" />
            <mxPoint x="909" y="459.79999999999995" as="targetPoint" />
          </mxGeometry>
        </mxCell>
        <mxCell id="Tmug1frjyuenqpXo7niR-1" value="" style="endArrow=none;html=1;rounded=0;strokeColor=none;" edge="1" parent="1">
          <mxGeometry width="50" height="50" relative="1" as="geometry">
            <mxPoint x="800" y="560" as="sourcePoint" />
            <mxPoint x="1680" y="560" as="targetPoint" />
          </mxGeometry>
        </mxCell>
      </root>
    </mxGraphModel>
  </diagram>
  <diagram name="con_indice_y_direccion" id="NaBL4UexCiHeZpPLgFL3">
    <mxGraphModel dx="1370" dy="843" grid="1" gridSize="10" guides="1" tooltips="1" connect="1" arrows="1" fold="1" page="1" pageScale="1" pageWidth="850" pageHeight="1100" math="0" shadow="0">
      <root>
        <mxCell id="7xC1718tqux0LuIDrNza-0" />
        <mxCell id="7xC1718tqux0LuIDrNza-1" parent="7xC1718tqux0LuIDrNza-0" />
        <mxCell id="7xC1718tqux0LuIDrNza-2" value="&lt;font style=&quot;font-size: 22px;&quot;&gt;index&lt;/font&gt;" style="text;html=1;align=center;verticalAlign=middle;whiteSpace=wrap;rounded=0;fontSize=16;fontFamily=Cascadia Code;fontColor=#4D4D4D;container=0;" parent="7xC1718tqux0LuIDrNza-1" vertex="1">
          <mxGeometry x="773" y="314" width="110" height="50" as="geometry" />
        </mxCell>
        <mxCell id="7xC1718tqux0LuIDrNza-3" value="&lt;span style=&quot;color: rgb(77, 77, 77); font-family: &amp;quot;Cascadia Code&amp;quot;;&quot;&gt;&lt;font style=&quot;font-size: 18px;&quot;&gt;&quot;almendras&quot;&lt;/font&gt;&lt;/span&gt;" style="rounded=0;whiteSpace=wrap;html=1;strokeWidth=1;fillColor=#DFEAF2;" parent="7xC1718tqux0LuIDrNza-1" vertex="1">
          <mxGeometry x="1040" y="361" width="120" height="70" as="geometry" />
        </mxCell>
        <mxCell id="7xC1718tqux0LuIDrNza-4" value="&lt;font face=&quot;Cascadia Code&quot; style=&quot;color: rgb(77, 77, 77);&quot;&gt;1&lt;/font&gt;" style="rounded=0;whiteSpace=wrap;html=1;strokeWidth=1;fillColor=#DFEAF2;fontSize=22;" parent="7xC1718tqux0LuIDrNza-1" vertex="1">
          <mxGeometry x="1040" y="321" width="120" height="40" as="geometry" />
        </mxCell>
        <mxCell id="7xC1718tqux0LuIDrNza-5" value="&lt;span style=&quot;color: rgb(77, 77, 77); font-family: &amp;quot;Cascadia Code&amp;quot;;&quot;&gt;&lt;font style=&quot;font-size: 18px;&quot;&gt;&quot;pistachos&quot;&lt;/font&gt;&lt;/span&gt;" style="rounded=0;whiteSpace=wrap;html=1;strokeWidth=1;fillColor=#DFEAF2;" parent="7xC1718tqux0LuIDrNza-1" vertex="1">
          <mxGeometry x="1160" y="361" width="120" height="70" as="geometry" />
        </mxCell>
        <mxCell id="7xC1718tqux0LuIDrNza-6" value="&lt;font face=&quot;Cascadia Code&quot; style=&quot;color: rgb(77, 77, 77);&quot;&gt;2&lt;/font&gt;" style="rounded=0;whiteSpace=wrap;html=1;strokeWidth=1;fillColor=#DFEAF2;fontSize=22;" parent="7xC1718tqux0LuIDrNza-1" vertex="1">
          <mxGeometry x="1160" y="321" width="120" height="40" as="geometry" />
        </mxCell>
        <mxCell id="7xC1718tqux0LuIDrNza-7" value="&lt;span style=&quot;color: rgb(77, 77, 77); font-family: &amp;quot;Cascadia Code&amp;quot;;&quot;&gt;&lt;font style=&quot;font-size: 18px;&quot;&gt;&quot;maníes&quot;&lt;/font&gt;&lt;/span&gt;" style="rounded=0;whiteSpace=wrap;html=1;strokeWidth=1;fillColor=#DFEAF2;" parent="7xC1718tqux0LuIDrNza-1" vertex="1">
          <mxGeometry x="1280" y="361" width="120" height="70" as="geometry" />
        </mxCell>
        <mxCell id="7xC1718tqux0LuIDrNza-8" value="&lt;font face=&quot;Cascadia Code&quot; style=&quot;color: rgb(77, 77, 77);&quot;&gt;3&lt;/font&gt;" style="rounded=0;whiteSpace=wrap;html=1;strokeWidth=1;fillColor=#DFEAF2;fontSize=22;" parent="7xC1718tqux0LuIDrNza-1" vertex="1">
          <mxGeometry x="1280" y="321" width="120" height="40" as="geometry" />
        </mxCell>
        <mxCell id="7xC1718tqux0LuIDrNza-9" value="&lt;span style=&quot;color: rgb(77, 77, 77); font-family: &amp;quot;Cascadia Code&amp;quot;;&quot;&gt;&lt;font style=&quot;font-size: 18px;&quot;&gt;&quot;castañas&quot;&lt;/font&gt;&lt;/span&gt;" style="rounded=0;whiteSpace=wrap;html=1;strokeWidth=1;fillColor=#DFEAF2;" parent="7xC1718tqux0LuIDrNza-1" vertex="1">
          <mxGeometry x="1400" y="361" width="120" height="70" as="geometry" />
        </mxCell>
        <mxCell id="7xC1718tqux0LuIDrNza-10" value="&lt;font face=&quot;Cascadia Code&quot; style=&quot;color: rgb(77, 77, 77);&quot;&gt;4&lt;/font&gt;" style="rounded=0;whiteSpace=wrap;html=1;strokeWidth=1;fillColor=#DFEAF2;fontSize=22;" parent="7xC1718tqux0LuIDrNza-1" vertex="1">
          <mxGeometry x="1400" y="321" width="120" height="40" as="geometry" />
        </mxCell>
        <mxCell id="7xC1718tqux0LuIDrNza-11" value="&lt;span style=&quot;color: rgb(77, 77, 77); font-family: &amp;quot;Cascadia Code&amp;quot;;&quot;&gt;&lt;font style=&quot;font-size: 18px;&quot;&gt;&quot;nueces&quot;&lt;/font&gt;&lt;/span&gt;" style="rounded=0;whiteSpace=wrap;html=1;strokeWidth=1;fillColor=#DFEAF2;" parent="7xC1718tqux0LuIDrNza-1" vertex="1">
          <mxGeometry x="920" y="361" width="120" height="70" as="geometry" />
        </mxCell>
        <mxCell id="7xC1718tqux0LuIDrNza-12" value="&lt;font style=&quot;color: rgb(77, 77, 77);&quot; face=&quot;Cascadia Code&quot;&gt;0&lt;/font&gt;" style="rounded=0;whiteSpace=wrap;html=1;strokeWidth=1;fillColor=#DFEAF2;fontSize=22;" parent="7xC1718tqux0LuIDrNza-1" vertex="1">
          <mxGeometry x="920" y="321" width="120" height="40" as="geometry" />
        </mxCell>
        <mxCell id="PBZmOEz7wa_dz6Rwe0vO-0" value="&lt;font style=&quot;color: rgb(77, 77, 77);&quot; face=&quot;Cascadia Code&quot;&gt;1010&lt;/font&gt;" style="rounded=0;whiteSpace=wrap;html=1;strokeWidth=1;fillColor=#DFEAF2;fontSize=22;" parent="7xC1718tqux0LuIDrNza-1" vertex="1">
          <mxGeometry x="920" y="281" width="120" height="40" as="geometry" />
        </mxCell>
        <mxCell id="PBZmOEz7wa_dz6Rwe0vO-1" value="&lt;font style=&quot;color: rgb(77, 77, 77);&quot; face=&quot;Cascadia Code&quot;&gt;1011&lt;/font&gt;" style="rounded=0;whiteSpace=wrap;html=1;strokeWidth=1;fillColor=#DFEAF2;fontSize=22;" parent="7xC1718tqux0LuIDrNza-1" vertex="1">
          <mxGeometry x="1040" y="281" width="120" height="40" as="geometry" />
        </mxCell>
        <mxCell id="PBZmOEz7wa_dz6Rwe0vO-2" value="&lt;font style=&quot;color: rgb(77, 77, 77);&quot; face=&quot;Cascadia Code&quot;&gt;1012&lt;/font&gt;" style="rounded=0;whiteSpace=wrap;html=1;strokeWidth=1;fillColor=#DFEAF2;fontSize=22;" parent="7xC1718tqux0LuIDrNza-1" vertex="1">
          <mxGeometry x="1160" y="281" width="120" height="40" as="geometry" />
        </mxCell>
        <mxCell id="PBZmOEz7wa_dz6Rwe0vO-3" value="&lt;font style=&quot;color: rgb(77, 77, 77);&quot; face=&quot;Cascadia Code&quot;&gt;1013&lt;/font&gt;" style="rounded=0;whiteSpace=wrap;html=1;strokeWidth=1;fillColor=#DFEAF2;fontSize=22;" parent="7xC1718tqux0LuIDrNza-1" vertex="1">
          <mxGeometry x="1280" y="281" width="120" height="40" as="geometry" />
        </mxCell>
        <mxCell id="PBZmOEz7wa_dz6Rwe0vO-4" value="&lt;font style=&quot;color: rgb(77, 77, 77);&quot; face=&quot;Cascadia Code&quot;&gt;1014&lt;/font&gt;" style="rounded=0;whiteSpace=wrap;html=1;strokeWidth=1;fillColor=#DFEAF2;fontSize=22;" parent="7xC1718tqux0LuIDrNza-1" vertex="1">
          <mxGeometry x="1400" y="281" width="120" height="40" as="geometry" />
        </mxCell>
        <mxCell id="Lo7XM-7KyuOUh7iMEjjy-0" value="&lt;font style=&quot;font-size: 22px;&quot;&gt;dirección&lt;/font&gt;&lt;div&gt;&lt;span style=&quot;background-color: transparent; color: light-dark(rgb(77, 77, 77), rgb(171, 171, 171));&quot;&gt;&lt;font style=&quot;font-size: 22px;&quot;&gt;de&lt;/font&gt;&lt;/span&gt;&lt;div&gt;&lt;font style=&quot;font-size: 22px;&quot;&gt;memoria&lt;/font&gt;&lt;/div&gt;&lt;/div&gt;" style="text;html=1;align=center;verticalAlign=middle;whiteSpace=wrap;rounded=0;fontSize=16;fontFamily=Cascadia Code;fontColor=#4D4D4D;container=0;" parent="7xC1718tqux0LuIDrNza-1" vertex="1">
          <mxGeometry x="1550" y="256" width="150" height="90" as="geometry" />
        </mxCell>
        <mxCell id="TA16cAlXMdnk4Ro4i7_E-0" value="" style="endArrow=classic;html=1;rounded=0;strokeWidth=2;fontColor=#4D4D4D;strokeColor=#4D4D4D;" parent="7xC1718tqux0LuIDrNza-1" edge="1">
          <mxGeometry width="50" height="50" relative="1" as="geometry">
            <mxPoint x="870" y="340.8" as="sourcePoint" />
            <mxPoint x="910" y="340.8" as="targetPoint" />
          </mxGeometry>
        </mxCell>
        <mxCell id="7QIMSJT4cYQCvOyawZMg-0" value="" style="endArrow=classic;html=1;rounded=0;strokeWidth=2;fontColor=#4D4D4D;strokeColor=#4D4D4D;" parent="7xC1718tqux0LuIDrNza-1" edge="1">
          <mxGeometry width="50" height="50" relative="1" as="geometry">
            <mxPoint x="1570" y="300.88" as="sourcePoint" />
            <mxPoint x="1530" y="300.88" as="targetPoint" />
          </mxGeometry>
        </mxCell>
        <mxCell id="yNP-moXiNlTd9SH4SAKt-3" value="" style="endArrow=none;html=1;rounded=0;strokeColor=none;" edge="1" parent="7xC1718tqux0LuIDrNza-1">
          <mxGeometry width="50" height="50" relative="1" as="geometry">
            <mxPoint x="800" y="440" as="sourcePoint" />
            <mxPoint x="1680" y="440" as="targetPoint" />
          </mxGeometry>
        </mxCell>
      </root>
    </mxGraphModel>
  </diagram>
</mxfile>
